<svg viewBox="0 0 180.433 68.195"><path fill="#3ACE01" d="M7.228,68.066h0.465h0.138h27.349c3.976,0,7.228-3.253,7.228-7.229	v-0.603c0-3.976-3.252-7.228-7.228-7.228H15.059V7.228C15.059,3.252,11.807,0,7.831,0H7.228C3.252,0,0,3.252,0,7.228v53.609	C0,64.813,3.252,68.066,7.228,68.066L7.228,68.066z M180.433,34.462v-0.603c0-3.976-3.253-7.228-7.229-7.228h-20.12V15.187h20.12	c3.976,0,7.229-3.252,7.229-7.228V7.356c0-3.976-3.253-7.228-7.229-7.228h-27.349h-0.138h-0.465c-3.976,0-7.228,3.252-7.228,7.228	v53.609c0,3.976,3.252,7.229,7.228,7.229h0.465h0.138h27.349c3.976,0,7.229-3.253,7.229-7.229v-0.603	c0-3.976-3.253-7.228-7.229-7.228h-20.12V41.69h20.12C177.18,41.69,180.433,38.438,180.433,34.462L180.433,34.462z M126.678,65.911	l0.002-0.003c1.29-1.308,2.09-3.1,2.09-5.07V7.228c0-3.976-3.252-7.228-7.229-7.228h-0.603c-3.976,0-7.228,3.252-7.228,7.228v31.469	L87.585,3.655C86.337,1.477,83.987,0,81.309,0h-0.603c-3.976,0-7.229,3.252-7.229,7.228v53.609c0,3.976,3.252,7.229,7.229,7.229	h0.603c3.976,0,7.228-3.253,7.228-7.229V28.78l26.314,35.941c0.162,0.252,0.339,0.494,0.53,0.724l0.001,0.002	c0.723,0.986,1.712,1.662,2.814,2.075c0.847,0.35,1.773,0.544,2.742,0.544h0.603c1.218,0,2.367-0.306,3.377-0.844	C125.64,66.877,126.249,66.434,126.678,65.911L126.678,65.911z M55.47,68.066h0.603c3.976,0,7.228-3.253,7.228-7.229V7.228	C63.3,3.252,60.048,0,56.072,0H55.47c-3.976,0-7.229,3.252-7.229,7.228v53.609C48.241,64.813,51.494,68.066,55.47,68.066z"/></svg>
